<svg width="625" height="240" xmlns="http://www.w3.org/2000/svg">
 <g id="Layer_1">
  <title>Layer 1</title>
  <ellipse fill="#f97850" cx="119.5" cy="19.5" id="svg_4" rx="19.5" ry="19.5"/>
  <ellipse fill="#fff" cx="119.5" cy="19.5" id="svg_5" rx="13.5" ry="13.5"/>
  <ellipse fill="#666666" cx="119.5" cy="219.5" id="svg_6" rx="19.5" ry="19.5"/>
  <ellipse fill="#ffffff" cx="119.5" cy="219.5" id="svg_7" rx="13.5" ry="13.5"/>
  <ellipse fill="#7b8dbf" cx="219.5" cy="19.5" id="svg_8" rx="19.5" ry="19.5" stroke="#fff"/>
  <ellipse fill="#fff" cx="219.5" cy="19.5" id="svg_9" rx="13.5" ry="13.5"/>
  <ellipse fill="#666666" cx="219.5" cy="219.5" id="svg_12" rx="19.5" ry="19.5"/>
  <ellipse fill="#ffffff" cx="219.5" cy="219.5" id="svg_13" rx="13.5" ry="13.5"/>
  <ellipse fill="#57b794" cx="19.5" cy="19.5" id="svg_14" rx="19.5" ry="19.5"/>
  <ellipse fill="#ffffff" cx="19.5" cy="19.5" id="svg_15" rx="13.5" ry="13.5"/>
  <ellipse fill="#666666" cx="19.5" cy="219.5" id="svg_18" rx="19.5" ry="19.5"/>
  <ellipse fill="#ffffff" cx="19.5" cy="219.5" id="svg_19" rx="13.5" ry="13.5"/>
  <line fill="none" stroke-width="3" x1="134" y1="106" x2="170.00001" y2="70" id="svg_25" stroke="#000"/>
  <line fill="none" stroke-width="4" x1="170" y1="70" x2="206.00001" y2="34" id="svg_26" stroke="#7b8dbf"/>
  <line fill="none" stroke-width="4" x1="134" y1="106" x2="170.00001" y2="70" id="svg_27" stroke="#f97850"/>
  <line fill="none" stroke-width="4" x1="34" y1="106" x2="70.00001" y2="70" id="svg_28" stroke="#57b794"/>
  <line fill="none" stroke-width="4" x1="69" y1="71" x2="105.00001" y2="35" id="svg_29" stroke="#f97850"/>
  <line fill="none" stroke-width="4" x1="34" y1="33.5" x2="70" y2="69.5" id="svg_36" stroke="#57b794"/>
  <line fill="none" stroke-width="3" x1="70" y1="69.5" x2="106" y2="105.5" id="svg_37" stroke="#000"/>
  <line fill="none" stroke-width="4" x1="70" y1="69.5" x2="106" y2="105.5" id="svg_40" stroke="#f97850"/>
  <line fill="none" stroke-width="4" x1="134" y1="33.5" x2="170" y2="69.5" id="svg_43" stroke="#f97850"/>
  <line fill="none" stroke-width="4" x1="170" y1="69.5" x2="206" y2="105.5" id="svg_44" stroke="#7b8dbf"/>
  <line fill="none" stroke="#57b794" stroke-width="4" x1="35" y1="19.5" x2="101.00758" y2="19.5" id="svg_46"/>
  <line fill="none" stroke="#7b8dbf" stroke-width="4" x1="140" y1="19.5" x2="206.00758" y2="19.5" id="svg_47"/>
  <line fill="none" stroke="#666666" stroke-width="4" x1="35" y1="219.5" x2="101.00758" y2="219.5" id="svg_50"/>
  <line fill="none" stroke="#666666" stroke-width="4" x1="139" y1="219.5" x2="205.00758" y2="219.5" id="svg_51"/>
  <ellipse fill="#f97850" cx="119.5" cy="19.5" id="svg_52" rx="19.5" ry="19.5"/>
  <ellipse fill="#fff" cx="119.5" cy="19.5" id="svg_53" rx="13.5" ry="13.5"/>
  <ellipse fill="#7b8dbf" cx="219.5" cy="19.5" id="svg_54" rx="19.5" ry="19.5" stroke="#fff"/>
  <ellipse fill="#fff" cx="219.5" cy="19.5" id="svg_55" rx="13.5" ry="13.5"/>
  <ellipse fill="#57b794" cx="19.5" cy="19.5" id="svg_56" rx="19.5" ry="19.5"/>
  <ellipse fill="#ffffff" cx="19.5" cy="19.5" id="svg_57" rx="13.5" ry="13.5"/>
  <line fill="none" stroke-width="3" x1="134" y1="106" x2="170.00001" y2="70" id="svg_58" stroke="#000"/>
  <line fill="none" stroke-width="4" x1="170" y1="70" x2="206.00001" y2="34" id="svg_59" stroke="#7b8dbf"/>
  <line fill="none" stroke-width="4" x1="134" y1="106" x2="170.00001" y2="70" id="svg_60" stroke="#f97850"/>
  <line fill="none" stroke-width="4" x1="34" y1="106" x2="70.00001" y2="70" id="svg_61" stroke="#57b794"/>
  <line fill="none" stroke-width="4" x1="69" y1="71" x2="105.00001" y2="35" id="svg_62" stroke="#f97850"/>
  <line fill="none" stroke-width="4" x1="34" y1="33.5" x2="70" y2="69.5" id="svg_63" stroke="#57b794"/>
  <line fill="none" stroke-width="3" x1="70" y1="69.5" x2="106" y2="105.5" id="svg_64" stroke="#000"/>
  <line fill="none" stroke-width="4" x1="70" y1="69.5" x2="106" y2="105.5" id="svg_65" stroke="#f97850"/>
  <line fill="none" stroke-width="4" x1="134" y1="33.5" x2="170" y2="69.5" id="svg_66" stroke="#f97850"/>
  <line fill="none" stroke-width="4" x1="170" y1="69.5" x2="206" y2="105.5" id="svg_67" stroke="#7b8dbf"/>
  <line fill="none" stroke="#57b794" stroke-width="4" x1="35" y1="19.5" x2="101.00758" y2="19.5" id="svg_68"/>
  <line fill="none" stroke-width="4" x1="140" y1="19.5" x2="206.00758" y2="19.5" id="svg_69" stroke="#7b8dbf"/>
  <ellipse fill="#f97850" cx="119.5" cy="19.5" id="svg_70" rx="19.5" ry="19.5"/>
  <ellipse fill="#fff" cx="119.5" cy="19.5" id="svg_71" rx="13.5" ry="13.5"/>
  <ellipse fill="#7b8dbf" cx="219.5" cy="19.5" id="svg_72" rx="19.5" ry="19.5" stroke="#fff"/>
  <ellipse fill="#fff" cx="219.5" cy="19.5" id="svg_73" rx="13.5" ry="13.5"/>
  <ellipse fill="#57b794" cx="19.5" cy="19.5" id="svg_74" rx="19.5" ry="19.5"/>
  <ellipse fill="#ffffff" cx="19.5" cy="19.5" id="svg_75" rx="13.5" ry="13.5"/>
  <line fill="none" stroke-width="3" x1="134" y1="106" x2="170.00001" y2="70" id="svg_76" stroke="#000"/>
  <line fill="none" stroke-width="4" x1="170" y1="70" x2="206.00001" y2="34" id="svg_77" stroke="#7b8dbf"/>
  <line fill="none" stroke-width="4" x1="134" y1="106" x2="170.00001" y2="70" id="svg_78" stroke="#f97850"/>
  <line fill="none" stroke-width="4" x1="34" y1="106" x2="70.00001" y2="70" id="svg_79" stroke="#57b794"/>
  <line fill="none" stroke-width="4" x1="69" y1="71" x2="105.00001" y2="35" id="svg_80" stroke="#f97850"/>
  <line fill="none" stroke-width="4" x1="34" y1="33.5" x2="70" y2="69.5" id="svg_81" stroke="#57b794"/>
  <line fill="none" stroke-width="3" x1="70" y1="69.5" x2="106" y2="105.5" id="svg_82" stroke="#000"/>
  <line fill="none" stroke-width="4" x1="70" y1="69.5" x2="106" y2="105.5" id="svg_83" stroke="#f97850"/>
  <line fill="none" stroke-width="4" x1="134" y1="33.5" x2="170" y2="69.5" id="svg_84" stroke="#f97850"/>
  <line fill="none" stroke-width="4" x1="170" y1="69.5" x2="206" y2="105.5" id="svg_85" stroke="#7b8dbf"/>
  <line fill="none" stroke="#57b794" stroke-width="4" x1="35" y1="19.5" x2="101.00758" y2="19.5" id="svg_86"/>
  <line fill="none" stroke="#7b8dbf" stroke-width="4" x1="140" y1="19.5" x2="206.00758" y2="19.5" id="svg_87"/>
  <ellipse fill="#f97850" cx="119.5" cy="19.5" id="svg_88" rx="19.5" ry="19.5"/>
  <ellipse fill="#ffffff" cx="119.5" cy="19.5" id="svg_89" rx="13.5" ry="13.5"/>
  <ellipse fill="#7a8cbe" cx="219.5" cy="19.5" id="svg_90" rx="19.5" ry="19.5" stroke="#fff"/>
  <ellipse fill="#ffffff" cx="219.5" cy="19.5" id="svg_91" rx="13.5" ry="13.5"/>
  <ellipse fill="#57b794" cx="19.5" cy="19.5" id="svg_92" rx="19.5" ry="19.5"/>
  <ellipse fill="#ffffff" cx="19.5" cy="19.5" id="svg_93" rx="13.5" ry="13.5"/>
  <line fill="none" stroke-width="3" x1="134" y1="106" x2="170.00001" y2="70" id="svg_94" stroke="#000"/>
  <line fill="none" stroke-width="4" x1="170" y1="70" x2="206.00001" y2="34" id="svg_95" stroke="#7a8cbe"/>
  <line fill="none" stroke-width="4" x1="134" y1="106" x2="170.00001" y2="70" id="svg_96" stroke="#f97850"/>
  <line fill="none" stroke-width="4" x1="34" y1="106" x2="70.00001" y2="70" id="svg_97" stroke="#57b794"/>
  <line fill="none" stroke-width="4" x1="69" y1="71" x2="105.00001" y2="35" id="svg_98" stroke="#f97850"/>
  <line fill="none" stroke-width="4" x1="34" y1="33.5" x2="70" y2="69.5" id="svg_99" stroke="#57b794"/>
  <line fill="none" stroke-width="3" x1="70" y1="69.5" x2="106" y2="105.5" id="svg_100" stroke="#000"/>
  <line fill="none" stroke-width="4" x1="70" y1="69.5" x2="106" y2="105.5" id="svg_101" stroke="#f97850"/>
  <line fill="none" stroke-width="4" x1="134" y1="33.5" x2="170" y2="69.5" id="svg_102" stroke="#f97850"/>
  <line fill="none" stroke-width="4" x1="170" y1="69.5" x2="206" y2="105.5" id="svg_103" stroke="#7a8cbe"/>
  <line fill="none" stroke="#57b794" stroke-width="4" x1="35" y1="19.5" x2="101.00758" y2="19.5" id="svg_104"/>
  <line fill="none" stroke-width="4" x1="140" y1="19.5" x2="206.00758" y2="19.5" id="svg_105" stroke="#7a8cbe"/>
  <ellipse fill="#f97850" cx="119.5" cy="119.5" id="svg_106" rx="19.5" ry="19.5"/>
  <ellipse fill="#fff" cx="119.5" cy="119.5" id="svg_107" rx="13.5" ry="13.5"/>
  <ellipse fill="#7b8dbf" cx="219.5" cy="119.5" id="svg_108" rx="19.5" ry="19.5" stroke="#fff"/>
  <ellipse fill="#fff" cx="219.5" cy="119.5" id="svg_109" rx="13.5" ry="13.5"/>
  <ellipse fill="#57b794" cx="19.5" cy="119.5" id="svg_110" rx="19.5" ry="19.5"/>
  <ellipse fill="#ffffff" cx="19.5" cy="119.5" id="svg_111" rx="13.5" ry="13.5"/>
  <line fill="none" stroke-width="3" x1="134" y1="206" x2="170.00001" y2="170" id="svg_112" stroke="#000"/>
  <line fill="none" stroke-width="4" x1="170" y1="170" x2="206.00001" y2="134" id="svg_113" stroke="#7b8dbf"/>
  <line fill="none" stroke-width="4" x1="134" y1="206" x2="170.00001" y2="170" id="svg_114" stroke="#f97850"/>
  <line fill="none" stroke-width="4" x1="34" y1="206" x2="70.00001" y2="170" id="svg_115" stroke="#57b794"/>
  <line fill="none" stroke-width="4" x1="69" y1="171" x2="105.00001" y2="135" id="svg_116" stroke="#f97850"/>
  <line fill="none" stroke-width="4" x1="34" y1="133.5" x2="70" y2="169.5" id="svg_117" stroke="#57b794"/>
  <line fill="none" stroke-width="3" x1="70" y1="169.5" x2="106" y2="205.5" id="svg_118" stroke="#000"/>
  <line fill="none" stroke-width="4" x1="70" y1="169.5" x2="106" y2="205.5" id="svg_119" stroke="#f97850"/>
  <line fill="none" stroke-width="4" x1="134" y1="133.5" x2="170" y2="169.5" id="svg_120" stroke="#f97850"/>
  <line fill="none" stroke-width="4" x1="170" y1="169.5" x2="206" y2="205.5" id="svg_121" stroke="#7b8dbf"/>
  <line fill="none" stroke="#57b794" stroke-width="4" x1="35" y1="119.5" x2="101.00758" y2="119.5" id="svg_122"/>
  <line fill="none" stroke="#7b8dbf" stroke-width="4" x1="140" y1="119.5" x2="206.00758" y2="119.5" id="svg_123"/>
  <ellipse fill="#f97850" cx="119.5" cy="119.5" id="svg_124" rx="19.5" ry="19.5"/>
  <ellipse fill="#fff" cx="119.5" cy="119.5" id="svg_125" rx="13.5" ry="13.5"/>
  <ellipse fill="#7b8dbf" cx="219.5" cy="119.5" id="svg_126" rx="19.5" ry="19.5" stroke="#fff"/>
  <ellipse fill="#fff" cx="219.5" cy="119.5" id="svg_127" rx="13.5" ry="13.5"/>
  <ellipse fill="#57b794" cx="19.5" cy="119.5" id="svg_128" rx="19.5" ry="19.5"/>
  <ellipse fill="#ffffff" cx="19.5" cy="119.5" id="svg_129" rx="13.5" ry="13.5"/>
  <line fill="none" stroke-width="3" x1="134" y1="206" x2="170.00001" y2="170" id="svg_130" stroke="#000"/>
  <line fill="none" stroke-width="4" x1="170" y1="170" x2="206.00001" y2="134" id="svg_131" stroke="#7b8dbf"/>
  <line fill="none" stroke-width="4" x1="134" y1="206" x2="170.00001" y2="170" id="svg_132" stroke="#f97850"/>
  <line fill="none" stroke-width="4" x1="34" y1="206" x2="70.00001" y2="170" id="svg_133" stroke="#57b794"/>
  <line fill="none" stroke-width="4" x1="69" y1="171" x2="105.00001" y2="135" id="svg_134" stroke="#f97850"/>
  <line fill="none" stroke-width="4" x1="34" y1="133.5" x2="70" y2="169.5" id="svg_135" stroke="#57b794"/>
  <line fill="none" stroke-width="3" x1="70" y1="169.5" x2="106" y2="205.5" id="svg_136" stroke="#000"/>
  <line fill="none" stroke-width="4" x1="70" y1="169.5" x2="106" y2="205.5" id="svg_137" stroke="#f97850"/>
  <line fill="none" stroke-width="4" x1="134" y1="133.5" x2="170" y2="169.5" id="svg_138" stroke="#f97850"/>
  <line fill="none" stroke-width="4" x1="170" y1="169.5" x2="206" y2="205.5" id="svg_139" stroke="#7b8dbf"/>
  <line fill="none" stroke="#57b794" stroke-width="4" x1="35" y1="119.5" x2="101.00758" y2="119.5" id="svg_140"/>
  <line fill="none" stroke-width="4" x1="140" y1="119.5" x2="206.00758" y2="119.5" id="svg_141" stroke="#7b8dbf"/>
  <ellipse fill="#f97850" cx="119.5" cy="119.5" id="svg_142" rx="19.5" ry="19.5"/>
  <ellipse fill="#fff" cx="119.5" cy="119.5" id="svg_143" rx="13.5" ry="13.5"/>
  <ellipse fill="#7b8dbf" cx="219.5" cy="119.5" id="svg_144" rx="19.5" ry="19.5" stroke="#fff"/>
  <ellipse fill="#fff" cx="219.5" cy="119.5" id="svg_145" rx="13.5" ry="13.5"/>
  <ellipse fill="#57b794" cx="19.5" cy="119.5" id="svg_146" rx="19.5" ry="19.5"/>
  <ellipse fill="#ffffff" cx="19.5" cy="119.5" id="svg_147" rx="13.5" ry="13.5"/>
  <line fill="none" stroke-width="3" x1="134" y1="206" x2="170.00001" y2="170" id="svg_148" stroke="#000"/>
  <line fill="none" stroke-width="4" x1="170" y1="170" x2="206.00001" y2="134" id="svg_149" stroke="#7b8dbf"/>
  <line fill="none" stroke-width="4" x1="134" y1="206" x2="170.00001" y2="170" id="svg_150" stroke="#f97850"/>
  <line fill="none" stroke-width="4" x1="34" y1="206" x2="70.00001" y2="170" id="svg_151" stroke="#57b794"/>
  <line fill="none" stroke-width="4" x1="69" y1="171" x2="105.00001" y2="135" id="svg_152" stroke="#f97850"/>
  <line fill="none" stroke-width="4" x1="34" y1="133.5" x2="70" y2="169.5" id="svg_153" stroke="#57b794"/>
  <line fill="none" stroke-width="3" x1="70" y1="169.5" x2="106" y2="205.5" id="svg_154" stroke="#000"/>
  <line fill="none" stroke-width="4" x1="70" y1="169.5" x2="106" y2="205.5" id="svg_155" stroke="#f97850"/>
  <line fill="none" stroke-width="4" x1="134" y1="133.5" x2="170" y2="169.5" id="svg_156" stroke="#f97850"/>
  <line fill="none" stroke-width="4" x1="170" y1="169.5" x2="206" y2="205.5" id="svg_157" stroke="#7b8dbf"/>
  <line fill="none" stroke="#57b794" stroke-width="4" x1="35" y1="119.5" x2="101.00758" y2="119.5" id="svg_158"/>
  <line fill="none" stroke="#7b8dbf" stroke-width="4" x1="140" y1="119.5" x2="206.00758" y2="119.5" id="svg_159"/>
  <ellipse fill="#f97850" cx="119.5" cy="119.5" id="svg_160" rx="19.5" ry="19.5"/>
  <ellipse fill="#ffffff" cx="119.5" cy="119.5" id="svg_161" rx="13.5" ry="13.5"/>
  <ellipse fill="#7a8cbe" cx="219.5" cy="119.5" id="svg_162" rx="19.5" ry="19.5" stroke="#fff"/>
  <ellipse fill="#ffffff" cx="219.5" cy="119.5" id="svg_163" rx="13.5" ry="13.5"/>
  <ellipse fill="#57b794" cx="19.5" cy="119.5" id="svg_164" rx="19.5" ry="19.5"/>
  <ellipse fill="#ffffff" cx="19.5" cy="119.5" id="svg_165" rx="13.5" ry="13.5"/>
  <line fill="none" stroke-width="3" x1="134" y1="206" x2="170.00001" y2="170" id="svg_166" stroke="#000"/>
  <line fill="none" stroke-width="4" x1="170" y1="170" x2="206.00001" y2="134" id="svg_167" stroke="#7a8cbe"/>
  <line fill="none" stroke-width="4" x1="134" y1="206" x2="170.00001" y2="170" id="svg_168" stroke="#f97850"/>
  <line fill="none" stroke-width="4" x1="34" y1="206" x2="70.00001" y2="170" id="svg_169" stroke="#57b794"/>
  <line fill="none" stroke-width="4" x1="69" y1="171" x2="105.00001" y2="135" id="svg_170" stroke="#f97850"/>
  <line fill="none" stroke-width="4" x1="34" y1="133.5" x2="70" y2="169.5" id="svg_171" stroke="#57b794"/>
  <line fill="none" stroke-width="3" x1="70" y1="169.5" x2="106" y2="205.5" id="svg_172" stroke="#000"/>
  <line fill="none" stroke-width="4" x1="70" y1="169.5" x2="106" y2="205.5" id="svg_173" stroke="#f97850"/>
  <line fill="none" stroke-width="4" x1="134" y1="133.5" x2="170" y2="169.5" id="svg_174" stroke="#f97850"/>
  <line fill="none" stroke-width="4" x1="170" y1="169.5" x2="206" y2="205.5" id="svg_175" stroke="#7a8cbe"/>
  <line fill="none" stroke="#57b794" stroke-width="4" x1="35" y1="119.5" x2="101.00758" y2="119.5" id="svg_176"/>
  <line fill="none" stroke-width="4" x1="140" y1="119.5" x2="206.00758" y2="119.5" id="svg_177" stroke="#7a8cbe"/>
 </g>
 <g id="Text">
  <text x="275" y="100" fill="#7a8cbe" font-size="75px" font-weight="bold" font-family="'Helvetica Neue', Helvetica, Arial-Unicode, Arial, Sans-serif">Algorithm</text>
  <text x="275" y="160" fill="#7a8cbe" font-size="75px" font-weight="bold" font-family="'Helvetica Neue', Helvetica, Arial-Unicode, Arial, Sans-serif">Audit</text>
 </g>

</svg>