<svg xmlns="http://www.w3.org/2000/svg" xmlns:xlink="http://www.w3.org/1999/xlink" version="1.1" x="0px" y="0px" viewBox="0 0 64 80" enable-background="new 0 0 64 64" xml:space="preserve"><g><g><path d="M55,14c2.757,0,5-2.243,5-5s-2.243-5-5-5c-2.414,0-4.434,1.721-4.899,4H36.899C36.434,5.721,34.414,4,32,4    s-4.434,1.721-4.899,4H13.899C13.434,5.721,11.414,4,9,4C6.243,4,4,6.243,4,9s2.243,5,5,5c0.988,0,1.937-0.289,2.755-0.831    l7.331,7.331l-7.329,7.329C10.941,27.29,9.99,27,9,27c-2.757,0-5,2.243-5,5s2.243,5,5,5c0.988,0,1.937-0.289,2.755-0.831    l7.331,7.331l-7.329,7.329C10.941,50.29,9.99,50,9,50c-2.757,0-5,2.243-5,5s2.243,5,5,5c2.414,0,4.434-1.721,4.899-4h13.202    c0.465,2.279,2.484,4,4.899,4s4.434-1.721,4.899-4h13.202c0.465,2.279,2.484,4,4.899,4c2.757,0,5-2.243,5-5s-2.243-5-5-5    c-0.988,0-1.937,0.289-2.755,0.831L44.914,43.5l7.329-7.329C53.059,36.71,54.01,37,55,37c2.757,0,5-2.243,5-5s-2.243-5-5-5    c-0.988,0-1.937,0.289-2.755,0.831L44.914,20.5l7.329-7.329C53.059,13.71,54.01,14,55,14z M11.128,11.118    C10.551,11.687,9.795,12,9,12c-1.654,0-3-1.346-3-3s1.346-3,3-3s3,1.346,3,3C12,9.795,11.687,10.551,11.128,11.118z M9,58    c-1.654,0-3-1.346-3-3s1.346-3,3-3c0.795,0,1.551,0.313,2.118,0.872C11.687,53.449,12,54.205,12,55C12,56.654,10.654,58,9,58z     M52.872,52.882C53.449,52.313,54.205,52,55,52c1.654,0,3,1.346,3,3s-1.346,3-3,3s-3-1.346-3-3    C52,54.205,52.313,53.449,52.872,52.882z M32,6c1.654,0,3,1.346,3,3c0,0.795-0.313,1.551-0.872,2.118    c-1.153,1.137-3.113,1.127-4.246,0.01C29.313,10.551,29,9.795,29,9C29,7.346,30.346,6,32,6z M29.243,13.171    C30.059,13.71,31.01,14,32,14c0.988,0,1.937-0.289,2.755-0.831l7.331,7.331l-7.329,7.329C33.941,27.29,32.99,27,32,27    c-0.988,0-1.937,0.289-2.755,0.831L21.914,20.5L29.243,13.171z M35,32c0,0.795-0.313,1.551-0.872,2.118    c-1.153,1.137-3.113,1.127-4.246,0.01C29.313,33.551,29,32.795,29,32s0.313-1.551,0.872-2.118C30.449,29.313,31.205,29,32,29    s1.551,0.313,2.118,0.872C34.687,30.449,35,31.205,35,32z M13.171,11.757c0.354-0.536,0.599-1.131,0.727-1.757h13.206    c0.127,0.624,0.373,1.218,0.728,1.755L20.5,19.086L13.171,11.757z M11.128,34.118C10.551,34.687,9.795,35,9,35    c-1.654,0-3-1.346-3-3s1.346-3,3-3c0.795,0,1.551,0.313,2.118,0.872C11.687,30.449,12,31.205,12,32S11.687,33.551,11.128,34.118z     M20.5,21.914l7.329,7.329C27.475,29.78,27.23,30.374,27.103,31H13.897c-0.127-0.624-0.373-1.218-0.728-1.755L20.5,21.914z     M13.171,34.757c0.354-0.536,0.599-1.131,0.727-1.757h13.206c0.127,0.624,0.373,1.218,0.728,1.755L20.5,42.086L13.171,34.757z     M27.103,54H13.897c-0.127-0.624-0.373-1.218-0.728-1.755l7.331-7.331l7.329,7.329C27.475,52.78,27.23,53.374,27.103,54z M32,58    c-1.654,0-3-1.346-3-3c0-0.795,0.313-1.551,0.872-2.118C30.449,52.313,31.205,52,32,52s1.551,0.313,2.118,0.872    C34.687,53.449,35,54.205,35,55C35,56.654,33.654,58,32,58z M34.757,50.829C33.941,50.29,32.99,50,32,50    c-0.988,0-1.937,0.289-2.755,0.831L21.914,43.5l7.329-7.329C30.059,36.71,31.01,37,32,37c0.988,0,1.937-0.289,2.755-0.831    l7.331,7.331L34.757,50.829z M50.829,52.243C50.475,52.78,50.23,53.374,50.103,54H36.897c-0.127-0.624-0.373-1.218-0.728-1.755    l7.331-7.331L50.829,52.243z M52.872,29.882C53.449,29.313,54.205,29,55,29c1.654,0,3,1.346,3,3s-1.346,3-3,3    c-0.795,0-1.551-0.313-2.118-0.872C52.313,33.551,52,32.795,52,32S52.313,30.449,52.872,29.882z M43.5,42.086l-7.329-7.329    c0.354-0.536,0.599-1.131,0.727-1.757h13.206c0.127,0.624,0.373,1.218,0.728,1.755L43.5,42.086z M50.829,29.243    C50.475,29.78,50.23,30.374,50.103,31H36.897c-0.127-0.624-0.373-1.218-0.728-1.755l7.331-7.331L50.829,29.243z M43.5,19.086    l-7.329-7.329c0.354-0.536,0.599-1.131,0.727-1.757h13.206c0.127,0.624,0.373,1.218,0.728,1.755L43.5,19.086z M55,6    c1.654,0,3,1.346,3,3s-1.346,3-3,3c-0.795,0-1.551-0.313-2.118-0.872C52.313,10.551,52,9.795,52,9C52,7.346,53.346,6,55,6z"/></g></g></svg>